<svg xmlns="http://www.w3.org/2000/svg" viewBox="0 0 240 240">
  <defs>
    <linearGradient id="g1" x1="0" x2="1" y1="0" y2="1">
      <stop offset="0" stop-color="#0ce24f"/>
      <stop offset="1" stop-color="#1cb34c"/>
    </linearGradient>
    <linearGradient id="g2" x1="0" x2="1" y1="0" y2="1">
      <stop offset="0" stop-color="#5ef0ff"/>
      <stop offset="1" stop-color="#1cc7ff"/>
    </linearGradient>
    <filter id="shadow" x="-20%" y="-20%" width="140%" height="140%">
      <feDropShadow dx="0" dy="12" stdDeviation="12" flood-color="#000" flood-opacity="0.24"/>
    </filter>
  </defs>
  <rect width="240" height="240" rx="34" fill="url(#g1)" filter="url(#shadow)"/>
  <path d="M52 156c0-42 18-66 40-66 14 0 24 9 28 16 7-10 17-16 30-16 23 0 42 24 42 66v6H52v-6Z" fill="#061510" opacity="0.12"/>
  <g filter="url(#shadow)">
    <path d="M50 160c0-56 28-88 82-88 49 0 78 32 78 88v12H50v-12Z" fill="url(#g1)"/>
  </g>
  <path d="M58 160v12h124v-12c0-50-26-76-62-76-31 0-62 24-62 76Z" fill="#081815" opacity="0.08"/>
  <text x="120" y="148" font-family="Segoe UI, system-ui, sans-serif" font-weight="700" font-size="84" text-anchor="middle" fill="#ffffff">OMG</text>
  <text x="120" y="196" font-family="Segoe UI, system-ui, sans-serif" font-weight="700" font-size="38" text-anchor="middle" fill="url(#g2)">Social</text>
</svg>